<?xml version="1.0" encoding="UTF-8" standalone="no"?>
<svg
   xmlns:dc="http://purl.org/dc/elements/1.1/"
   xmlns:cc="http://creativecommons.org/ns#"
   xmlns:rdf="http://www.w3.org/1999/02/22-rdf-syntax-ns#"
   xmlns:svg="http://www.w3.org/2000/svg"
   xmlns="http://www.w3.org/2000/svg"
   xmlns:sodipodi="http://sodipodi.sourceforge.net/DTD/sodipodi-0.dtd"
   xmlns:inkscape="http://www.inkscape.org/namespaces/inkscape"
   viewBox="0.0 0.0 348.0 348.0"
   fill="none"
   version="1.1"
   id="svg6"
   sodipodi:docname="Wolf, Goat, and Cabbage.svg"
   inkscape:version="0.92.4 (5da689c313, 2019-01-14)">
  <metadata
     id="metadata12">
    <rdf:RDF>
      <cc:Work
         rdf:about="">
        <dc:format>image/svg+xml</dc:format>
        <dc:type
           rdf:resource="http://purl.org/dc/dcmitype/StillImage" />
      </cc:Work>
    </rdf:RDF>
  </metadata>
  <defs
     id="defs10" />
  <sodipodi:namedview
     pagecolor="#ffffff"
     bordercolor="#666666"
     borderopacity="1"
     objecttolerance="10"
     gridtolerance="10"
     guidetolerance="10"
     inkscape:pageopacity="0"
     inkscape:pageshadow="2"
     inkscape:window-width="1920"
     inkscape:window-height="1001"
     id="namedview8"
     showgrid="false"
     inkscape:zoom="1.9181287"
     inkscape:cx="153.29564"
     inkscape:cy="168.36464"
     inkscape:window-x="-9"
     inkscape:window-y="-9"
     inkscape:window-maximized="1"
     inkscape:current-layer="svg6" />
  <path
     d="m 5.079,5.776 h 336.913 v 337.67 H 5.08 Z"
     id="path2"
     inkscape:connector-curvature="0"
     style="stroke:#000000;stroke-width:2" />
  <path
     d="M282.734 40.554c0-8.376 6.966-15.165 15.56-15.165 4.126 0 8.084 1.597 11.001 4.441 2.918 2.844 4.558 6.702 4.558 10.724 0 8.376-6.966 15.165-15.56 15.165-8.593 0-15.559-6.79-15.559-15.165z"
     stroke-width="2"
     stroke="#000"
     id="path4" />
  <rect
     style="opacity:1;fill:none;fill-opacity:1;stroke:#000000;stroke-width:2;stroke-miterlimit:4;stroke-dasharray:none;stroke-dashoffset:0;stroke-opacity:1"
     id="rect5433"
     width="215.31401"
     height="32.32317"
     x="65.878494"
     y="83.338425" />
  <rect
     style="opacity:1;fill:none;fill-opacity:1;stroke:#000000;stroke-width:2;stroke-miterlimit:4;stroke-dasharray:none;stroke-dashoffset:0;stroke-opacity:1"
     id="rect5433-3"
     width="160.9845"
     height="32.213161"
     x="65.878494"
     y="26.908676" />
  <rect
     style="opacity:1;fill:none;fill-opacity:1;stroke:#000000;stroke-width:2.29177761;stroke-miterlimit:4;stroke-dasharray:none;stroke-dashoffset:0;stroke-opacity:1"
     id="rect5454"
     width="30.467367"
     height="30.467367"
     x="51.23735"
     y="207.90506" />
  <rect
     style="opacity:1;fill:none;fill-opacity:1;stroke:#000000;stroke-width:2;stroke-miterlimit:4;stroke-dasharray:none;stroke-dashoffset:0;stroke-opacity:1"
     id="rect5456"
     width="10.948171"
     height="10.948171"
     x="60.996948"
     y="287.2637" />
  <circle
     style="opacity:1;fill:none;fill-opacity:1;stroke:#000000;stroke-width:2;stroke-miterlimit:4;stroke-dasharray:none;stroke-dashoffset:0;stroke-opacity:1"
     id="path5458"
     cx="280.59995"
     cy="292.73779"
     r="10.426828" />
  <rect
     style="opacity:1;fill:none;fill-opacity:1;stroke:#000000;stroke-width:2;stroke-miterlimit:4;stroke-dasharray:none;stroke-dashoffset:0;stroke-opacity:1"
     id="rect5450"
     width="130.52457"
     height="108.17424"
     x="108.27322"
     y="169.05162" />
  <rect
     style="opacity:1;fill:none;fill-opacity:1;stroke:#000000;stroke-width:2;stroke-miterlimit:4;stroke-dasharray:none;stroke-dashoffset:0;stroke-opacity:1"
     id="rect5450-1"
     width="105.72489"
     height="87.62114"
     x="120.67307"
     y="179.32816" />
  <rect
     style="opacity:1;fill:none;fill-opacity:1;stroke:#000000;stroke-width:2.29177761;stroke-miterlimit:4;stroke-dasharray:none;stroke-dashoffset:0;stroke-opacity:1"
     id="rect5454-8"
     width="30.467367"
     height="30.467367"
     x="265.36627"
     y="207.90506" />
  <g
     aria-label="Row"
     style="font-style:normal;font-variant:normal;font-weight:normal;font-stretch:normal;font-size:26.66666603px;line-height:1.25;font-family:sans-serif;-inkscape-font-specification:sans-serif;letter-spacing:0px;word-spacing:0px;fill:#000000;fill-opacity:1;stroke:none"
     id="text5566">
    <path
       d="m 136.30565,52.507442 h -3.34636 l -6.48437,-7.708333 h -3.63282 v 7.708333 h -2.57812 v -19.38802 h 5.42969 q 1.75781,0 2.92968,0.234375 1.17188,0.221354 2.10938,0.807292 1.05469,0.664062 1.64062,1.679687 0.59896,1.002604 0.59896,2.552083 0,2.096355 -1.05468,3.515625 -1.05469,1.40625 -2.90365,2.122396 z M 130.277,38.575151 q 0,-0.833333 -0.29948,-1.471354 -0.28646,-0.651042 -0.96354,-1.09375 -0.5599,-0.377604 -1.32813,-0.520833 -0.76822,-0.15625 -1.80989,-0.15625 h -3.03386 v 7.317708 h 2.60417 q 1.22396,0 2.13542,-0.208333 0.91146,-0.221355 1.54948,-0.807292 0.58593,-0.546875 0.85937,-1.25 0.28646,-0.716146 0.28646,-1.809896 z"
       style="font-size:26.66666603px"
       id="path5624" />
    <path
       d="m 150.38117,45.241818 q 0,3.554687 -1.82292,5.611979 -1.82292,2.057291 -4.88281,2.057291 -3.08594,0 -4.90886,-2.057291 -1.80989,-2.057292 -1.80989,-5.611979 0,-3.554688 1.80989,-5.611979 1.82292,-2.070313 4.90886,-2.070313 3.05989,0 4.88281,2.070313 1.82292,2.057291 1.82292,5.611979 z m -2.52605,0 q 0,-2.825521 -1.10677,-4.192709 -1.10677,-1.380208 -3.07291,-1.380208 -1.99219,0 -3.09896,1.380208 -1.09375,1.367188 -1.09375,4.192709 0,2.734375 1.10677,4.153645 1.10677,1.40625 3.08594,1.40625 1.95312,0 3.05989,-1.393229 1.11979,-1.40625 1.11979,-4.166666 z"
       style="font-size:26.66666603px"
       id="path5626" />
    <path
       d="m 172.47752,37.963172 -3.78906,14.54427 h -2.26563 l -3.73698,-11.210937 -3.71093,11.210937 h -2.25261 l -3.82812,-14.54427 h 2.55208 l 2.66927,11.263021 3.63281,-11.263021 h 2.01823 l 3.72396,11.263021 2.52604,-11.263021 z"
       style="font-size:26.66666603px"
       id="path5628" />
  </g>
  <g
     aria-label="Aboard"
     style="font-style:normal;font-variant:normal;font-weight:normal;font-stretch:normal;font-size:26.66666603px;line-height:1.25;font-family:sans-serif;-inkscape-font-specification:sans-serif;letter-spacing:0px;word-spacing:0px;fill:#000000;fill-opacity:1;stroke:none"
     id="text5566-8">
    <path
       d="m 144.9092,109.4284 h -2.74739 l -1.90105,-5.40365 h -8.38541 l -1.90104,5.40365 h -2.61719 l 7.05729,-19.388022 h 3.4375 z m -5.44271,-7.61719 -3.39843,-9.518228 -3.41146,9.518228 z"
       style="font-size:26.66666603px"
       id="path5611" />
    <path
       d="m 160.45608,102.04559 q 0,1.82291 -0.52084,3.28125 -0.50781,1.45833 -1.38021,2.44791 -0.92447,1.02865 -2.03124,1.54948 -1.10678,0.50781 -2.4349,0.50781 -1.23698,0 -2.16146,-0.29948 -0.92448,-0.28645 -1.82292,-0.78125 l -0.15625,0.67709 H 147.6566 V 89.167982 h 2.44791 v 7.239583 q 1.02865,-0.846354 2.1875,-1.380208 1.15886,-0.546875 2.60417,-0.546875 2.57813,0 4.0625,1.979166 1.4974,1.979167 1.4974,5.585942 z m -2.52605,0.0651 q 0,-2.604167 -0.85937,-3.945312 -0.85937,-1.354167 -2.77344,-1.354167 -1.06771,0 -2.16146,0.46875 -1.09375,0.455729 -2.03125,1.184896 v 8.333333 q 1.04167,0.46875 1.78386,0.65104 0.75521,0.18229 1.70573,0.18229 2.03125,0 3.17708,-1.32812 1.15885,-1.34115 1.15885,-4.19271 z"
       style="font-size:26.66666603px"
       id="path5613" />
    <path
       d="m 176.66701,102.16277 q 0,3.55469 -1.82291,5.61198 -1.82292,2.05729 -4.88281,2.05729 -3.08594,0 -4.90886,-2.05729 -1.80989,-2.05729 -1.80989,-5.61198 0,-3.554684 1.80989,-5.611976 1.82292,-2.070312 4.90886,-2.070312 3.05989,0 4.88281,2.070312 1.82291,2.057292 1.82291,5.611976 z m -2.52604,0 q 0,-2.825517 -1.10677,-4.192705 -1.10677,-1.380208 -3.07291,-1.380208 -1.99219,0 -3.09896,1.380208 -1.09375,1.367188 -1.09375,4.192705 0,2.73438 1.10677,4.15365 1.10677,1.40625 3.08594,1.40625 1.95312,0 3.05989,-1.39323 1.11979,-1.40625 1.11979,-4.16667 z"
       style="font-size:26.66666603px"
       id="path5615" />
    <path
       d="m 191.77118,109.4284 h -2.4349 v -1.54948 q -0.32552,0.22135 -0.88541,0.625 -0.54688,0.39062 -1.06771,0.625 -0.61198,0.29948 -1.40625,0.49479 -0.79427,0.20833 -1.86198,0.20833 -1.96615,0 -3.33333,-1.30208 -1.36719,-1.30208 -1.36719,-3.32031 0,-1.65365 0.70312,-2.66927 0.71615,-1.02865 2.03125,-1.61459 1.32813,-0.58593 3.19011,-0.79427 1.86198,-0.20833 3.99739,-0.312497 v -0.377604 q 0,-0.833333 -0.29948,-1.380208 -0.28645,-0.546875 -0.83333,-0.859375 -0.52083,-0.299479 -1.25,-0.403646 -0.72917,-0.104167 -1.52344,-0.104167 -0.96354,0 -2.14843,0.260417 -1.1849,0.247396 -2.44792,0.729167 h -0.13021 v -2.486979 q 0.71615,-0.195313 2.07031,-0.429688 1.35417,-0.234375 2.66927,-0.234375 1.53646,0 2.66927,0.260417 1.14584,0.247396 1.97917,0.859375 0.82031,0.598958 1.25,1.549479 0.42969,0.950521 0.42969,2.356771 z m -2.4349,-3.58073 v -4.04948 q -1.11979,0.0651 -2.64323,0.19531 -1.51041,0.13021 -2.39583,0.37761 -1.05469,0.29948 -1.70573,0.9375 -0.65104,0.625 -0.65104,1.73177 0,1.25 0.75521,1.88802 0.75521,0.625 2.30469,0.625 1.28906,0 2.35677,-0.49479 1.0677,-0.50782 1.97916,-1.21094 z"
       style="font-size:26.66666603px"
       id="path5617" />
    <path
       d="m 205.58628,97.553398 h -0.13021 q -0.54687,-0.130208 -1.06771,-0.182291 -0.50781,-0.0651 -1.21093,-0.0651 -1.13282,0 -2.1875,0.507812 -1.05469,0.494792 -2.03125,1.289063 V 109.4284 h -2.44792 V 94.884128 h 2.44792 v 2.148437 q 1.45833,-1.171875 2.5651,-1.653646 1.11979,-0.494791 2.27865,-0.494791 0.63802,0 0.92448,0.03906 0.28645,0.02604 0.85937,0.117188 z"
       style="font-size:26.66666603px"
       id="path5619" />
    <path
       d="m 219.71388,109.4284 h -2.44791 v -1.52344 q -1.05469,0.91146 -2.20052,1.41927 -1.14584,0.50781 -2.48698,0.50781 -2.60417,0 -4.14063,-2.0052 -1.52343,-2.00521 -1.52343,-5.5599 0,-1.84896 0.52083,-3.294271 0.53385,-1.445312 1.43229,-2.460937 0.88542,-0.989584 2.05729,-1.510417 1.1849,-0.520833 2.44792,-0.520833 1.14583,0 2.03125,0.247396 0.88542,0.234375 1.86198,0.742187 v -6.302083 h 2.44791 z m -2.44791,-3.58073 v -8.346355 q -0.98959,-0.442708 -1.77084,-0.611979 -0.78125,-0.169271 -1.70572,-0.169271 -2.0573,0 -3.20313,1.432292 -1.14583,1.432291 -1.14583,4.062503 0,2.59114 0.88541,3.94531 0.88542,1.34114 2.83855,1.34114 1.04166,0 2.10937,-0.45572 1.06771,-0.46875 1.99219,-1.19792 z"
       style="font-size:26.66666603px"
       id="path5621" />
  </g>
  <g
     aria-label="🡄🡆"
     style="font-style:normal;font-variant:normal;font-weight:normal;font-stretch:normal;font-size:26.66666603px;line-height:1.25;font-family:sans-serif;-inkscape-font-specification:sans-serif;letter-spacing:0px;word-spacing:0px;fill:#000000;fill-opacity:1;stroke:none"
     id="text5566-82">
    <path
       d="m 56.835618,223.13874 9.635417,-9.63541 v 4.81771 h 9.635416 v 9.63541 h -9.635416 v 4.81771 z"
       style="font-size:26.66666603px"
       id="path5606"
       inkscape:connector-curvature="0" />
    <path
       d="m 290.23537,223.13874 -9.63541,-9.63541 v 4.81771 h -9.63542 v 9.63541 h 9.63542 v 4.81771 z"
       style="font-size:26.66666603px"
       id="path5608"
       inkscape:connector-curvature="0" />
  </g>
</svg>
